<svg version="1.1" id="Layer_1" xmlns:x="ns_extend;" xmlns:i="ns_ai;" xmlns:graph="ns_graphs;" xmlns="http://www.w3.org/2000/svg" xmlns:xlink="http://www.w3.org/1999/xlink" x="0px" y="0px" viewBox="0 0 400 78.7" style="enable-background:new 0 0 400 78.7;" xml:space="preserve">
 <style type="text/css">
  .st0{fill-rule:evenodd;clip-rule:evenodd;}
 </style>
 <metadata>
  <sfw xmlns="ns_sfw;">
   <slices>
   </slices>
   <sliceSourceBounds bottomLeftOrigin="true" height="78.7" width="400" x="-82.1" y="-239.1">
   </sliceSourceBounds>
  </sfw>
 </metadata>
 <g>
  <path class="st0" d="M400,0v78.7H232.1V0H400L400,0z M226,0v78.7H0V0H226z M333.2,11.3h-11.3v39.5c0,3.8,0.5,6.9,1.5,9.3
		c1,2.4,2.3,4.2,4,5.5c1.7,1.3,3.7,2.2,5.7,2.6c2.2,0.4,4.4,0.6,6.7,0.6c2.3,0,4.5-0.2,6.7-0.7c2.1-0.5,4.1-1.4,5.7-2.8
		c1.7-1.4,3-3.2,4-5.6c0.9-2.1,1.4-4.7,1.5-7.9l0-1.1V11.3h-11.3v39.5c0,1.4-0.1,2.7-0.3,3.9c-0.1,1.1-0.5,2.1-1,3.1
		c-0.5,0.9-1.2,1.6-2,2.1c-0.8,0.5-1.9,0.8-3.3,0.8c-1.3,0-2.4-0.3-3.3-0.8c-0.9-0.5-1.6-1.2-2-2.1c-0.5-1-0.9-2-1-3.1
		c-0.1-1-0.2-1.9-0.3-2.9l0-1V11.3L333.2,11.3z M298.7,10.2c-4.3,0-7.6,0.7-10.2,2.2c-2.5,1.4-4.5,3.5-5.8,6.1
		c-1.3,2.6-2.2,5.7-2.6,9.3c-0.4,3.9-0.6,7.9-0.6,11.9c0,4.3,0.2,8.3,0.6,11.9c0.4,3.6,1.3,6.7,2.6,9.3c1.3,2.5,3.3,4.6,5.8,6
		c2.5,1.4,5.9,2.1,10.2,2.1c4.3,0,7.6-0.7,10.2-2.1c2.5-1.3,4.5-3.4,5.8-6c1.3-2.6,2.2-5.7,2.6-9.3c0.4-3.6,0.6-7.6,0.6-11.9
		c0-4-0.2-7.9-0.6-11.9c-0.4-3.6-1.3-6.7-2.6-9.3c-1.3-2.5-3.3-4.7-5.8-6.1C306.3,11,302.9,10.2,298.7,10.2z M151.5,11.3H140v39.5
		c0,3.8,0.5,6.9,1.5,9.3c1,2.4,2.4,4.2,4.1,5.5c1.7,1.3,3.7,2.2,5.8,2.6c2.2,0.4,4.4,0.6,6.7,0.6c2.3,0,4.6-0.2,6.8-0.7
		c2.1-0.5,4.1-1.4,5.8-2.8c1.7-1.4,3-3.2,4-5.6c0.9-2.1,1.4-4.7,1.5-7.9l0-1.1V11.3h-11.4v39.5c0,1.4-0.1,2.7-0.3,3.9
		c-0.2,1.1-0.5,2.1-1,3.1c-0.5,0.9-1.2,1.6-2,2.1c-0.8,0.5-2,0.8-3.3,0.8c-1.3,0-2.4-0.3-3.3-0.8c-0.9-0.5-1.6-1.2-2.1-2.1
		c-0.5-1-0.9-2-1-3.1c-0.1-1-0.2-1.9-0.3-2.9l0-1L151.5,11.3L151.5,11.3z M116.6,10.2c-4.3,0-7.7,0.7-10.2,2.2
		c-2.5,1.5-4.5,3.5-5.8,6.1c-1.3,2.6-2.2,5.7-2.6,9.3c-0.4,3.9-0.6,7.9-0.6,11.9c0,4.3,0.2,8.3,0.6,11.9c0.4,3.6,1.3,6.7,2.6,9.3
		c1.3,2.5,3.3,4.6,5.8,6c2.5,1.4,6,2.1,10.2,2.1c4.3,0,7.7-0.7,10.2-2.1c2.5-1.3,4.5-3.4,5.8-6c1.4-2.6,2.2-5.7,2.6-9.3
		s0.6-7.6,0.6-11.9c0-4.3-0.2-8.2-0.6-11.9c-0.4-3.6-1.3-6.7-2.6-9.3c-1.3-2.6-3.3-4.7-5.8-6.1C124.3,11,120.9,10.2,116.6,10.2
		L116.6,10.2z M252.6,11.3h-12.8l14.6,34.4V68h11.3V45.7l14.6-34.4H268l-7.9,21.9H260L252.6,11.3L252.6,11.3z M215.6,11.3h-36.2v9.4
		h12.4V68h11.4V20.7h12.4C215.6,20.7,215.6,11.3,215.6,11.3z M76.7,11.3H57.5V68h19.3c3.3,0,6.1-0.4,8.4-1.4
		c2.3-0.9,4.1-2.1,5.5-3.6c1.4-1.5,2.4-3.3,3-5.3c0.6-2.1,0.9-4.2,0.9-6.4c0-3.8-0.9-6.9-2.8-9.1c-1.7-2.1-4-3.4-6.8-3.9l-0.7-0.1
		v-0.2c2.9-0.8,5-2.3,6.4-4.5c1.4-2.2,2.1-4.8,2.1-7.9c0-2.7-0.4-5-1.2-6.8c-0.8-1.9-1.9-3.3-3.3-4.4c-1.5-1.2-3.3-2-5.1-2.4
		C81,11.6,78.8,11.3,76.7,11.3z M38.5,11.3H24.4L9.4,68h11.9l2.6-12H39l2.6,12h11.9L38.5,11.3L38.5,11.3z M116.6,18.7
		c1.7,0,3.1,0.4,4.1,1.2c1,0.8,1.8,2,2.4,3.7c0.6,1.7,0.9,3.9,1.1,6.5c0.2,2.6,0.3,5.9,0.3,9.7c0,3.8-0.1,7.1-0.3,9.7
		c-0.2,2.7-0.6,4.8-1.1,6.5c-0.6,1.7-1.4,2.9-2.4,3.7c-1,0.8-2.4,1.2-4.1,1.2c-1.7,0-3.1-0.4-4.1-1.2c-1-0.8-1.8-2-2.4-3.7
		c-0.6-1.7-0.9-3.8-1.1-6.5c-0.2-3.2-0.3-6.5-0.3-9.7c0-3.8,0.1-7,0.3-9.7c0.2-2.6,0.6-4.8,1.1-6.5c0.6-1.7,1.3-2.9,2.4-3.7
		C113.5,19,114.9,18.7,116.6,18.7z M298.7,18.7c1.7,0,3,0.4,4.1,1.2c1,0.8,1.8,2,2.4,3.7c0.6,1.7,0.9,3.9,1.1,6.5
		c0.2,2.6,0.3,5.9,0.3,9.7c0,3.8-0.1,7.1-0.3,9.7c-0.2,2.7-0.6,4.8-1.1,6.5c-0.6,1.7-1.3,2.9-2.4,3.7c-1,0.8-2.4,1.2-4.1,1.2
		s-3-0.4-4.1-1.2c-1-0.8-1.8-2-2.4-3.7c-0.6-1.7-0.9-3.8-1.1-6.5c-0.2-2.7-0.3-5.9-0.3-9.7s0.1-7,0.3-9.7c0.2-2.6,0.6-4.8,1.1-6.5
		c0.6-1.7,1.3-2.9,2.4-3.7C295.6,19,297,18.7,298.7,18.7L298.7,18.7z M73.9,42.6c1.3,0,2.4,0.1,3.5,0.4c1.1,0.3,2,0.7,2.7,1.4
		s1.4,1.5,1.8,2.6c0.5,1.1,0.7,2.5,0.7,4.1c0,3.3-0.8,5.5-2.5,6.8c-1.5,1.1-3.5,1.7-5.9,1.8l-0.8,0H69V42.6
		C69,42.6,73.9,42.6,73.9,42.6z M31.6,21.2L37,46.7H25.9l5.5-25.5H31.6z M377.9,9.6c-7.1,0-12.9,5.8-12.9,13c0,7.2,5.8,13,12.9,13
		c7.1,0,12.9-5.8,12.9-13C390.9,15.5,385.1,9.6,377.9,9.6z M73.1,19.8c2.9,0,4.9,0.6,6.3,1.7c1.3,1.1,2,3,2,5.7
		c0,2.7-0.7,4.6-2.2,5.8c-1.3,1-3.4,1.6-6.2,1.7l-0.8,0H69V19.8H73.1z M377.9,13.6c1.5,0,3,0.4,4.3,1.1l0.5,0.3l-4,4l2.8,2.8l4-4
		c0.9,1.4,1.4,3.1,1.4,4.8c0,5-4,9.1-9,9.1s-9-4.1-9-9.1C368.9,17.7,373,13.6,377.9,13.6L377.9,13.6z">
  </path>
 </g>
</svg>