<svg version="1.1" id="Layer_1" xmlns="http://www.w3.org/2000/svg" xmlns:xlink="http://www.w3.org/1999/xlink" x="0px" y="0px" viewBox="0 0 358.9 44" style="enable-background:new 0 0 358.9 44;" xml:space="preserve">
 <style type="text/css">
  .st0{fill-rule:evenodd;clip-rule:evenodd;}
 </style>
 <g>
  <path class="st0" d="M311.6,1.2h13.2c0.5,0,0.8,0.4,0.6,0.8l-13.5,38.6c-0.1,0.4-0.6,0.8-1.1,0.8h-13c-0.5,0-0.9-0.4-1.1-0.8
		l-7.1-20.3c0,0.3,0,0.7,0,1c0,11.8-9.7,21.3-21.5,21.3c-10.8,0-19.8-8-21.3-18.3v16.3c0,0.4-0.4,0.8-0.9,0.8h-10.2
		c-0.4,0-0.9-0.3-1.2-0.8l-10.3-18.2v18.1c0,0.4-0.4,0.8-0.9,0.8H211L185.5,5.3v36.2h-2.6V1.2h2.6L211,37.3V1.2h1.3l2.4,0h8.4
		c0.5,0,1.1,0.3,1.4,0.8l10.2,18.2V2c0-0.5,0.4-0.9,0.8-0.9h10.4c0.5,0,0.9,0.4,0.9,0.9v16.2C248.3,8,257.3,0,268.1,0
		c7.2,0,13.7,3.6,17.6,9l-2.5-7c-0.2-0.4,0.1-0.8,0.6-0.8H297c0.5,0,1,0.4,1.1,0.8l6.2,24l6.2-24C310.6,1.6,311.1,1.2,311.6,1.2z
		 M258.6,21.3c0,5.2,4.2,9.4,9.5,9.4c5.2,0,9.5-4.2,9.5-9.4c0-5.2-4.2-9.4-9.5-9.4C262.9,12,258.6,16.2,258.6,21.3z M334.9,26.2
		l3.2-11.1l3.2,11.1H334.9z M345.6,1.9l13.3,38.8c0.2,0.4-0.1,0.8-0.5,0.8h-11.7c-0.5,0-1-0.3-1.2-0.8l-1.8-6.1h-11.1l-1.8,6.1
		c-0.2,0.5-0.7,0.8-1.2,0.8h-11.7c-0.5,0-0.7-0.4-0.5-0.8l13.3-38.8c0.2-0.3,0.8-0.8,1.4-0.8h12C344.7,1.2,345.4,1.6,345.6,1.9z">
  </path>
  <path d="M2.6,3.7h18V1.4H0v41.3h2.6V23.5h17.3v-2.4H2.6V3.7z">
  </path>
  <path class="st0" d="M77.5,20.8c1.4,0.8,2.7,1.6,3.8,2.7c1.2,1,2.1,2.2,2.9,3.5c0.7,1.3,1.1,2.9,1.1,4.6c0,1.6-0.3,3.1-0.9,4.4
		c-0.6,1.4-1.5,2.5-2.6,3.5c-1.1,1-2.5,1.8-4.1,2.3c-1.6,0.5-3.3,0.8-5.2,0.8c-1.8,0-3.7-0.2-5.7-0.6c-2-0.4-3.7-1-5.2-1.7l0.7-2.3
		c1.7,0.7,3.3,1.3,4.9,1.7c1.6,0.4,3.4,0.6,5.2,0.6c3.2,0,5.7-0.8,7.5-2.3c1.9-1.5,2.8-3.7,2.8-6.3c0-1.4-0.3-2.7-0.9-3.7
		c-0.6-1-1.3-1.9-2.2-2.7c-0.9-0.8-2-1.5-3.1-2.1c-1.2-0.6-2.4-1.2-3.6-1.9c-1.5-0.7-2.9-1.5-4.2-2.2c-1.3-0.7-2.4-1.5-3.3-2.4
		c-0.9-0.9-1.6-1.9-2.1-3c-0.5-1.1-0.8-2.4-0.8-4c0-1.6,0.3-3.1,0.9-4.3c0.6-1.2,1.5-2.2,2.5-3c1.1-0.8,2.3-1.4,3.6-1.8
		C70.9,0.2,72.3,0,73.8,0c1.8,0,3.6,0.2,5.3,0.6c1.7,0.4,3.2,1,4.5,1.7L83,4.6c-1.5-0.7-2.9-1.3-4.5-1.7c-1.5-0.4-3-0.6-4.6-0.6
		c-2.6,0-4.7,0.6-6.4,1.8c-1.7,1.2-2.5,3-2.5,5.4c0,1.2,0.2,2.2,0.5,3.1c0.3,0.8,0.9,1.6,1.5,2.3c0.7,0.7,1.5,1.3,2.6,1.9
		c1,0.6,2.3,1.3,3.7,1.9C74.7,19.3,76.1,20,77.5,20.8z M38,0.7L22,41.9h2.7l4.2-11.1H49l4.3,11.1h2.7l-16-41.1H38z M29.8,28.4
		L39,4.2l9.2,24.2H29.8z">
  </path>
  <path d="M117,20.5H92.1V1.4h-2.7v41.3h2.7V22.9H117v19.7h2.7V1.4H117V20.5z">
  </path>
  <path d="M127.9,42.6h2.8V1.4h-2.8V42.6z">
  </path>
  <path class="st0" d="M136.2,22c0-12.1,9.9-22,22-22c12.1,0,22,9.9,22,22c0,12.1-9.9,22-22,22C146,44,136.2,34.1,136.2,22z
		 M139.1,22c0,10.5,8.6,19.1,19.1,19.1c10.5,0,19.1-8.6,19.1-19.1c0-10.5-8.6-19.1-19.1-19.1C147.6,2.9,139.1,11.5,139.1,22z">
  </path>
 </g>
</svg>