<svg xmlns="http://www.w3.org/2000/svg" aria-hidden="true" focusable="false" role="presentation" viewBox="0 0 164.23 16">
<path d="m20.17 13.4-.96-1.7c-.68-1.17-1.62-1.92-2.72-2.21v-.11c2.17-.74 3.64-2.45 3.64-4.53 0-2.79-1.87-4.3-6.02-4.3H0v.32c.89.21 1.28.64 1.28 2.77v8.72c0 2.13-.38 2.55-1.28 2.77v.32h5.85v-.32c-.89-.21-1.28-.64-1.28-2.77v-1.85h6.38c2.94 0 4.06.66 5.13 2.49l1.45 2.45h4.43v-.32c-.75-.21-1.17-.66-1.79-1.72Zm-7.4-5.55h-8.2V3.21h9c2.21 0 3.04.64 3.04 2.06 0 1.68-1.23 2.57-3.85 2.57ZM28.28 12.36V3.64c0-2.13-.38-2.55-1.28-2.77V.55h15.49c.21.87.72 1.85 1.62 3.38l.11.19-.28.19c-.85-.81-1.66-1.21-4.04-1.21h-8.38v2.98h7.26l1.4 2.45h-8.66v4.26h10.53c2.38 0 3.19-.4 4.04-1.21l.28.19-.53.92c-.64 1.17-1.06 2.02-1.23 2.77H27.02v-.32c.89-.21 1.28-.64 1.28-2.77M68.03 4.09l-4.49 7.79.02-.02c-.96 1.62-1.51 2.68-1.72 3.6h-4.51c-.21-.92-.79-1.98-1.72-3.6l-4.49-7.77C49.67 1.58 49.1 1.15 48.16.92V.56h6.34v.32c-1.23.32-.94 1.11.02 2.77l5.15 8.94h.13l5.15-8.94c1-1.74 1.25-2.45.02-2.77V.56h6.02v.36c-.94.23-1.51.64-2.96 3.17M84.15 0c-6.28 0-10.77 2.66-10.77 8s4.49 8 10.77 8 10.79-2.66 10.79-8-4.4-8-10.79-8m0 13.34c-4.38 0-7.26-1.6-7.26-5.34s2.87-5.34 7.26-5.34 7.28 1.6 7.28 5.34-2.89 5.34-7.28 5.34M101.21 12.36V3.64c0-2.13-.38-2.55-1.28-2.77V.55h5.85v.32c-.89.21-1.28.64-1.28 2.77v9.13h8.96c2.38 0 3.19-.4 4.04-1.21l.28.19-.15.24c-.87 1.55-1.4 2.57-1.62 3.47H99.93v-.32c.89-.21 1.28-.64 1.28-2.77M137.54 4.09l-4.49 7.79.02-.02c-.96 1.62-1.51 2.68-1.72 3.6h-4.51c-.21-.92-.79-1.98-1.72-3.6l-4.49-7.77c-1.45-2.51-2.02-2.94-2.96-3.17V.56h6.34v.32c-1.23.32-.94 1.11.02 2.77l5.15 8.94h.13l5.15-8.94c1-1.74 1.26-2.45.02-2.77V.56h6.02v.36c-.94.23-1.51.64-2.96 3.17M146.14 12.36V3.64c0-2.13-.38-2.55-1.28-2.77V.55h15.49c.21.87.72 1.85 1.62 3.38l.11.19-.28.19c-.85-.81-1.66-1.21-4.04-1.21h-8.38v2.98h7.26l1.4 2.45h-8.66v4.26h10.53c2.38 0 3.19-.4 4.04-1.21l.28.19-.53.92c-.64 1.17-1.06 2.02-1.23 2.77h-17.6v-.32c.89-.21 1.28-.64 1.28-2.77"></path>
</svg>